<?xml version="1.0" encoding="UTF-8"?><svg id="Layer_2" xmlns="http://www.w3.org/2000/svg" viewBox="0 0 434.66 274.87"><g id="Layer_1-2"><path d="M.41,101.79c4.37,2.74,9.6,4.02,14.53,5.34s10.23,2.97,15.29,2.93,9.95-3.07,13.91-6.2c11.38-9,21.86-19.23,32.6-28.97s21.24-20.58,30.87-31.61c4.95-5.67,9.65-11.57,14.37-17.44,3.97-4.93,10.45-11.34,11.6-17.77,.47-2.65-28.51-9.59-28.98-7.76-2.15,8.36-5.4,16.29-7.18,24.77-1.89,9.04-3.81,18.07-5.71,27.1-3.88,18.39-7.7,36.79-11.1,55.27-6.67,36.25-12.64,73.39-14.32,110.25-.41,9.04-.41,18.2,.14,27.23s3.58,15.01,9.86,21.16c1.28,1.26,4.95,2.16,6.43,2.65,3.64,1.22,7.39,2.25,11.13,3.14,2.84,.68,5.91,1.61,8.84,1.65,.58,0,2.9,.39,1.76-.73-5.76-5.64-8.4-11.29-8.99-19.34s-.58-16.13-.34-24.11c.55-17.91,2.84-35.79,5.1-53.56,4.66-36.67,11.46-72.92,19.05-109.08,2.1-10,4.23-20,6.32-30s5.5-18.98,7.99-28.64L104.61,.3c-.95,5.34-5.95,10.71-9.24,14.83-4.12,5.15-8.27,10.28-12.49,15.35-8.13,9.78-17.05,19.03-26.01,28.05s-18.01,16.97-27.25,25.08c-4.36,3.83-8.71,7.72-13.18,11.43-3.95,3.28-8.57,6.81-13.95,6.76l10.39,1.7-1.03-.25,17.55,5.79-.85-.53c-5.05-3.17-11.82-4.43-17.55-5.79-2.84-.68-5.91-1.61-8.84-1.65-.31,0-3.24-.2-1.76,.73H.41Z"/><path d="M215.1,17.89c-7.05,31.35-12.13,63.02-15.51,94.98s-2.68,65.74-.14,98.6c1.43,18.52,3.29,37,4.93,55.5l28.98,7.76c-2.06-7.49-3.6-14.77-6.73-21.92s-6.59-14.02-10.63-20.62c-7.5-12.24-17.28-23.16-28.12-32.52-11.33-9.78-24.01-17.51-37.03-24.8-14.06-7.89-27.95-16.11-42.11-23.81-5.36-2.92-11.65-4.38-17.55-5.79-2.84-.68-5.91-1.61-8.84-1.65-.25,0-3.31-.12-1.76,.73,13.89,7.56,27.49,15.64,41.29,23.36,12.81,7.16,25.36,14.67,36.58,24.19,11.03,9.35,20.98,20.2,28.55,32.55,4.04,6.59,7.53,13.53,10.63,20.62s4.67,14.43,6.73,21.92c.28,1.01,3.53,1.99,3.97,2.16,3.29,1.27,6.74,2.26,10.13,3.17,1.04,.28,14.95,3.24,14.88,2.43-2.88-32.43-6.48-64.86-7.11-97.44-.64-32.97,2.69-65.68,7.63-98.25,2.72-17.92,6.22-35.7,10.2-53.39,.57-2.52-28.57-9.6-28.98-7.76h0Z"/><path d="M142.32,157.07c37.56-2.02,75.18-1.46,112.74-3.97,37.77-2.53,75.49-5.32,113.33-6.6,21.67-.74,43.35-1.15,65.03-1.31,4.05-.03-3.21-3.45-2.32-3.02-5.26-2.56-11.39-4.34-16.96-5.97-11.45-3.36-24.09-7.62-36.19-7.53-38.09,.28-76.18,1.3-114.21,3.55-37.77,2.23-75.44,5.56-113.28,6.67-21.2,.62-42.43,.52-63.61,1.66-3.85,.21,2.86,3.28,2.32,3.02,5.26,2.56,11.39,4.34,16.96,5.97,7.39,2.17,14.85,4.2,22.41,5.69,4.48,.88,9.19,2.08,13.78,1.84h0Z"/></g><g id="Layer_2-2"><path d="M374.4,49.76c2.73-9.2,8.89-21.39,4.23-30.91-.96-1.95-2.3-3.21-4.23-4.18-5.68-2.86-12.71-4.44-18.94-5.4-11.86-1.84-22.4,8.53-30.4,15.96-8.96,8.32-17.18,17.41-24.66,27.08s-14.38,20.17-19.18,31.6c-3.81,9.07-8.94,22.53,2.01,28.83,5.94,3.42,13.52,5.01,20.15,6.31,6.13,1.2,12.14,1.3,18.17-.4,14.18-4,27.58-10.04,40.59-16.89,.37-.19-3.61-1.87-2.98-1.62-2.45-.97-5.06-1.7-7.6-2.38s-8.49-3.23-11.16-1.83c-9.73,5.12-19.75,10.09-30.22,13.5-4.94,1.61-9.92,3.62-15.1,4.16-3.94,.41-10.25-1.25,1.67,1.88,11.13,2.93,5.43,2.08,3.13-2.03-4.84-8.66,1.3-20.33,5.09-28.3,4.32-9.1,9.95-17.55,16.04-25.56s12.63-15.52,19.69-22.64c7.33-7.39,15.36-15.35,24.82-19.97,2.07-1.01,3.99-1.34,6.18-1.85h-.03c-5.44-2.18-11.09-3.74-16.94-4.69,.31,.38,.96,.53,1.18,1.01,.57,1.24,1.28,2.2,1.7,3.57,2.89,9.49-2.31,19.95-4.96,28.91-.41,1.4,21.2,7.64,21.73,5.82h0Z"/><path d="M307.25,174.3c-7.34,14.93-14.91,29.74-22.42,44.59-3.62,7.16-7.15,14.36-10.82,21.48s-7.24,14.01-8.89,21.78c-.42,1.98,21.46,7.12,21.73,5.82,1.65-7.77,5.28-14.77,8.89-21.78,3.67-7.13,7.2-14.33,10.82-21.48,7.5-14.85,15.08-29.66,22.42-44.59,.1-.21-20.39-8.56-21.73-5.82h0Z"/><path d="M284.89,191.99c4.27-13.83,20.78-22.32,33.77-26.19,7.35-2.19,15.05-3.21,22.71-3.33,3.07-.05,6.15,.05,9.2,.39,.78,.07,1.56,.17,2.34,.3-6.74-2.35-8.49-2.75-5.25-1.2,.95,.73,1.96,1.29,2.83,2.14,11.98,11.71-4.21,22.68-13.62,27.89-7.09,3.92-14.47,7.3-22.01,10.22-5.03,1.95-13.19,6.52-18.75,5.86l14.97,3.59-.95-.32,5.13,2.38c5.8-4.27,14.6-5.03,21.56-5.63,8.07-.7,16.05-.59,24.13-.4,5.96,.15-8.65-3.5-4.88-1.46,1.27,.69,2.53,1.25,3.76,2.03,2.65,1.69,5.44,3.94,6.64,6.94,2.36,5.92-2.1,12.5-5.99,16.63-5.3,5.63-13.03,9.11-19.88,12.53-7.65,3.81-16.54,6.42-24.68,9.01-7.62,2.42-15.73,4.19-23.69,4.98-2.46,.24-4.94,.4-7.41,.37l-2.53-.09c-2.98-.38-2.48-.08,1.49,.89-.88-.83-3.74-1.76-4.77-2.32-1.94-1.06-3.82-2.24-5.69-3.42-3.79-2.37-8.87-3.32-13.16-4.34-1.94-.46-4.68-1.55-6.63-1.24-.19,.03-2.46-.17-1.32,.54,15.16,9.49,33.61,15.67,51.57,16.13s36.35-6.51,53.71-12.64c3.81-1.34,7.2-3.32,10.75-5.25,3.98-2.16,8.33-4.01,11.69-7.08,4.66-4.25,10.7-11.5,8.47-18.34-1.84-5.64-8.23-9.11-13.25-11.41-9.1-4.16-19.32-6.77-29.21-8.17-8.97-1.27-18.22-.91-27.24-.3-8.12,.55-18.36,1.2-25.16,6.21-.29,.21,5.08,2.36,5.13,2.38,7.84,2.61,16.36,5.55,24.49,2.8,6.37-2.16,12.71-4.64,18.91-7.26,6.9-2.92,13.67-6.2,20.11-10.04,5.08-3.03,11.74-7,13.58-13.02,4.91-16.02-19.03-21.15-29.47-23.58-14.75-3.43-30.23-4.14-45.02-.5s-33.41,12.3-38.09,27.48c-.41,1.32,21.15,7.71,21.73,5.82h0Z"/></g></svg>